<svg class="dropdown-header-icon-arrow hidden" width="18" height="18" viewBox="0 0 18 18" fill="none" xmlns="http://www.w3.org/2000/svg">
<path d="M14.5237 9.42011L10.7887 13.1701C10.6687 13.2901 10.5187 13.3501 10.3687 13.3501C10.2187 13.3501 10.0687 13.2901 9.94871 13.1701C9.70871 12.9301 9.70871 12.5551 9.94871 12.3151L12.6637 9.58512H3.90371C3.57371 9.58512 3.30371 9.31512 3.30371 8.98512C3.30371 8.65512 3.57371 8.38512 3.90371 8.38512H12.6637L9.94871 5.65512C9.70871 5.41512 9.70871 5.04012 9.94871 4.80012C10.1887 4.56012 10.5637 4.56012 10.8037 4.80012L14.5387 8.55012C14.7637 8.80512 14.7637 9.19511 14.5237 9.42011Z" fill="#FF984E"></path>
</svg>